<svg xmlns="http://www.w3.org/2000/svg" viewBox="0 0 1260 555" width="1260" height="555" font-family="&#39;Cantarell&#39;,&#39;Adwaita Sans&#39;,&#39;Inter&#39;,system-ui,-apple-system,&#39;Segoe UI&#39;,sans-serif">
<defs>
  <marker id="ao-l" viewBox="0 0 10 10" refX="9" refY="5" markerWidth="7" markerHeight="7" orient="auto-start-reverse"><path d="M0,0 L10,5 L0,10 z" fill="#c44a00"></path></marker>
  <marker id="ag-l" viewBox="0 0 10 10" refX="9" refY="5" markerWidth="7" markerHeight="7" orient="auto-start-reverse"><path d="M0,0 L10,5 L0,10 z" fill="#2e7d3c"></path></marker>
  <marker id="at-l" viewBox="0 0 10 10" refX="9" refY="5" markerWidth="7" markerHeight="7" orient="auto-start-reverse"><path d="M0,0 L10,5 L0,10 z" fill="#1d7a8c"></path></marker>
  <marker id="as-l" viewBox="0 0 10 10" refX="9" refY="5" markerWidth="7" markerHeight="7" orient="auto-start-reverse"><path d="M0,0 L10,5 L0,10 z" fill="#6f8396"></path></marker>
</defs>

<rect width="1260" height="555" fill="#fafafb"></rect>


<g>
  <rect x="440" y="20" width="780" height="520" rx="12" ry="12" fill="rgba(111,131,150,0.05)" stroke="rgba(111,131,150,0.55)" stroke-width="1" stroke-dasharray="6 4"></rect>
  <text x="464" y="48" font-size="13" font-weight="700" fill="#6f8396" letter-spacing="0.04em">GNOME SHELL PROCESS</text>
</g>


<g>
  <path d="M 220,140 L 220,82 L 510,82 L 510,108" fill="none" stroke="#6f8396" stroke-width="1" stroke-dasharray="4 3" marker-end="url(#as-l)"></path>
  <rect x="240" y="70" width="180" height="24" rx="4" ry="4" fill="#ffffff" stroke="#d8d8dc" stroke-width="1"></rect>
  <text x="330" y="85" font-size="10" font-weight="700" fill="#6f8396" text-anchor="middle" letter-spacing="0.04em">AUTO-INSTALLS BRIDGE</text>
</g>


<g>
  <rect x="464" y="108" width="320" height="416" rx="10" ry="10" fill="rgba(145,65,172,0.07)" stroke="rgba(145,65,172,0.42)" stroke-width="1"></rect>
  <text x="484" y="136" font-size="14" font-weight="700" fill="#9141ac">Bridge extension</text>
  <text x="484" y="154" font-size="11" fill="#6b6b70" font-family="&#39;Adwaita Mono&#39;,ui-monospace,&#39;JetBrains Mono&#39;,&#39;Source Code Pro&#39;,Menlo,Consolas,monospace">gse-profiler-bridge@todevelopers</text>

  <g>
    <rect x="484" y="174" width="280" height="92" rx="6" ry="6" fill="#ffffff" stroke="#d8d8dc" stroke-width="1"></rect>
    <text x="500" y="200" font-size="14" font-weight="700" fill="#1f1f22" font-family="&#39;Adwaita Mono&#39;,ui-monospace,&#39;JetBrains Mono&#39;,&#39;Source Code Pro&#39;,Menlo,Consolas,monospace">socket_client.js</text>
    <text x="500" y="226" font-size="12" fill="#6b6b70">Unix domain socket client</text>
    <text x="500" y="246" font-size="12" fill="#6b6b70">newline-delimited JSON protocol</text>
  </g>

  <g>
    <rect x="484" y="282" width="280" height="92" rx="6" ry="6" fill="#ffffff" stroke="#d8d8dc" stroke-width="1"></rect>
    <text x="500" y="308" font-size="14" font-weight="700" fill="#1f1f22" font-family="&#39;Adwaita Mono&#39;,ui-monospace,&#39;JetBrains Mono&#39;,&#39;Source Code Pro&#39;,Menlo,Consolas,monospace">profiler.js</text>
    <text x="500" y="334" font-size="12" fill="#6b6b70">function wrapping &amp; timing</text>
    <text x="500" y="354" font-size="12" fill="#6b6b70">call-stack capture</text>
  </g>

  <g>
    <rect x="484" y="390" width="280" height="92" rx="6" ry="6" fill="#ffffff" stroke="#d8d8dc" stroke-width="1"></rect>
    <text x="500" y="416" font-size="14" font-weight="700" fill="#1f1f22" font-family="&#39;Adwaita Mono&#39;,ui-monospace,&#39;JetBrains Mono&#39;,&#39;Source Code Pro&#39;,Menlo,Consolas,monospace">inspector.js</text>
    <text x="500" y="442" font-size="12" fill="#6b6b70">GObject introspection</text>
    <text x="500" y="462" font-size="12" fill="#6b6b70">property &amp; signal enumeration</text>
  </g>
</g>


<g>
  <rect x="880" y="108" width="320" height="416" rx="10" ry="10" fill="rgba(196,74,0,0.07)" stroke="rgba(196,74,0,0.42)" stroke-width="1"></rect>
  <text x="900" y="136" font-size="14" font-weight="700" fill="#c44a00">Inspected extension</text>
  <text x="900" y="154" font-size="11" fill="#6b6b70">target · any installed GJS extension</text>

  <g>
    <rect x="900" y="174" width="280" height="38" rx="6" ry="6" fill="#ffffff" stroke="rgba(196,74,0,0.42)" stroke-width="1" stroke-dasharray="4 3"></rect>
    <text x="1040" y="198" font-size="12" font-weight="700" fill="#c44a00" text-anchor="middle" letter-spacing="0.04em">MONKEY-PATCHED AT RUNTIME</text>
  </g>

  <g>
    <rect x="900" y="278" width="280" height="92" rx="6" ry="6" fill="#ffffff" stroke="#d8d8dc" stroke-width="1"></rect>
    <text x="916" y="304" font-size="13" font-weight="700" fill="#1f1f22">Wrapped functions</text>
    <text x="916" y="326" font-size="12" fill="#6b6b70">emit timing events on entry / exit</text>
    <text x="916" y="348" font-size="11" fill="#9a9a9f" font-family="&#39;Adwaita Mono&#39;,ui-monospace,&#39;JetBrains Mono&#39;,&#39;Source Code Pro&#39;,Menlo,Consolas,monospace">fn → start · end → profile_event</text>
  </g>

  <g>
    <rect x="900" y="386" width="280" height="92" rx="6" ry="6" fill="#ffffff" stroke="#d8d8dc" stroke-width="1"></rect>
    <text x="916" y="412" font-size="13" font-weight="700" fill="#1f1f22">Inspected GObjects</text>
    <text x="916" y="434" font-size="12" fill="#6b6b70">signals · properties · live object tree</text>
    <text x="916" y="456" font-size="11" fill="#9a9a9f" font-family="&#39;Adwaita Mono&#39;,ui-monospace,&#39;JetBrains Mono&#39;,&#39;Source Code Pro&#39;,Menlo,Consolas,monospace">global.stage · uiGroup · GParamSpec</text>
  </g>

  
</g>


<g>
  <rect x="40" y="140" width="340" height="220" rx="10" ry="10" fill="rgba(53,132,228,0.08)" stroke="rgba(53,132,228,0.45)" stroke-width="1"></rect>
  <text x="60" y="168" font-size="14" font-weight="700" fill="#3584e4">GSE Profiler (GTK4 desktop)</text>
  <text x="60" y="186" font-size="11" fill="#6b6b70" font-family="&#39;Adwaita Mono&#39;,ui-monospace,&#39;JetBrains Mono&#39;,&#39;Source Code Pro&#39;,Menlo,Consolas,monospace">Python 3.11+ · PyGObject</text>

  <g>
    <rect x="60" y="204" width="300" height="66" rx="6" ry="6" fill="#ffffff" stroke="#d8d8dc" stroke-width="1"></rect>
    <text x="76" y="228" font-size="14" font-weight="700" fill="#1f1f22" font-family="&#39;Adwaita Mono&#39;,ui-monospace,&#39;JetBrains Mono&#39;,&#39;Source Code Pro&#39;,Menlo,Consolas,monospace">SocketServer</text>
    <text x="76" y="250" font-size="12" fill="#6b6b70">accepts bridge connection</text>
  </g>

  <g>
    <rect x="60" y="282" width="300" height="66" rx="6" ry="6" fill="#ffffff" stroke="#d8d8dc" stroke-width="1"></rect>
    <text x="76" y="306" font-size="14" font-weight="700" fill="#1f1f22" font-family="&#39;Adwaita Mono&#39;,ui-monospace,&#39;JetBrains Mono&#39;,&#39;Source Code Pro&#39;,Menlo,Consolas,monospace">DBusClient</text>
    <text x="76" y="328" font-size="12" fill="#6b6b70">talks to org.gnome.Shell.Extensions</text>
  </g>
</g>


<g>
  <rect x="40" y="420" width="340" height="74" rx="10" ry="10" fill="rgba(29,122,140,0.08)" stroke="rgba(29,122,140,0.45)" stroke-width="1"></rect>
  <text x="60" y="446" font-size="13" font-weight="700" fill="#1d7a8c" letter-spacing="0.04em">D-BUS INTERFACE</text>
  <text x="60" y="466" font-size="13" font-weight="700" fill="#1f1f22" font-family="&#39;Adwaita Mono&#39;,ui-monospace,&#39;JetBrains Mono&#39;,&#39;Source Code Pro&#39;,Menlo,Consolas,monospace">org.gnome.Shell.Extensions</text>
  <text x="60" y="484" font-size="11" fill="#6b6b70">list · enable · disable · state-change signal</text>
</g>




<g>
  <path d="M 360,222 L 484,222" fill="none" stroke="#c44a00" stroke-width="1.5" marker-end="url(#ao-l)"></path>
  <rect x="386" y="211" width="72" height="22" rx="4" ry="4" fill="#ffffff" stroke="#d8d8dc" stroke-width="1"></rect>
  <text x="422" y="226" font-size="10" font-weight="700" fill="#c44a00" text-anchor="middle" letter-spacing="0.04em">COMMANDS</text>
</g>


<g>
  <path d="M 484,254 L 360,254" fill="none" stroke="#c44a00" stroke-width="1.5" stroke-dasharray="5 3" marker-end="url(#ao-l)"></path>
  <rect x="386" y="243" width="72" height="22" rx="4" ry="4" fill="#ffffff" stroke="#d8d8dc" stroke-width="1"></rect>
  <text x="422" y="258" font-size="10" font-weight="700" fill="#c44a00" text-anchor="middle" letter-spacing="0.04em">EVENTS</text>
</g>


<g>
  <path d="M 210,348 L 210,420" fill="none" stroke="#1d7a8c" stroke-width="1.5" marker-end="url(#at-l)"></path>
  <rect x="156" y="373" width="108" height="22" rx="4" ry="4" fill="#ffffff" stroke="#d8d8dc" stroke-width="1"></rect>
  <text x="210" y="388" font-size="10" font-weight="700" fill="#1d7a8c" text-anchor="middle" letter-spacing="0.04em">D-BUS CALL</text>
</g>


<g>
  <path d="M 380,457 L 440,457" fill="none" stroke="#1d7a8c" stroke-width="1" stroke-dasharray="3 3" opacity="0.55" marker-end="url(#at-l)"></path>
</g>


<g>
  <path d="M 764,305 L 880,305" fill="none" stroke="#2e7d3c" stroke-width="1.5" marker-end="url(#ag-l)"></path>
  <rect x="777" y="296" width="90" height="18" rx="3" ry="3" fill="#ffffff" stroke="#d8d8dc" stroke-width="1"></rect>
  <text x="822" y="308" font-size="10" font-weight="700" fill="#2e7d3c" text-anchor="middle">monkey-patch</text>
</g>


<g>
  <path d="M 880,345 L 764,345" fill="none" stroke="#c44a00" stroke-width="1.5" stroke-dasharray="5 3" marker-end="url(#ao-l)"></path>
  <rect x="777" y="336" width="90" height="18" rx="3" ry="3" fill="#ffffff" stroke="#d8d8dc" stroke-width="1"></rect>
  <text x="822" y="348" font-size="10" font-weight="700" fill="#c44a00" text-anchor="middle">profile events</text>
</g>


<g>
  <path d="M 764,432 L 880,432" fill="none" stroke="#2e7d3c" stroke-width="1.5" marker-end="url(#ag-l)"></path>
  <rect x="777" y="423" width="90" height="18" rx="3" ry="3" fill="#ffffff" stroke="#d8d8dc" stroke-width="1"></rect>
  <text x="822" y="435" font-size="10" font-weight="700" fill="#2e7d3c" text-anchor="middle">inspect</text>
</g>


</svg>