<?xml version="1.0"?>
<svg xmlns="http://www.w3.org/2000/svg" viewBox="0 0 128 128" width="128" height="128">
  <defs>
    <linearGradient id="em-base" gradientUnits="userSpaceOnUse" x1="12" x2="124" y1="62" y2="62">
      <stop offset="0" stop-color="#003380"></stop>
      <stop offset="0.392857" stop-color="#0055d4"></stop>
      <stop offset="1" stop-color="#003380"></stop>
    </linearGradient>
    <radialGradient id="em-hl" cx="56" cy="68" gradientUnits="userSpaceOnUse" r="56">
      <stop offset="0" stop-color="#55ddff"></stop>
      <stop offset="1" stop-color="#80b3ff" stop-opacity="0.898039"></stop>
    </radialGradient>
    <linearGradient id="gauge-ply" gradientUnits="userSpaceOnUse" x1="12" x2="124" y1="62" y2="62">
      <stop offset="0" stop-color="#003380"></stop>
      <stop offset="0.392857" stop-color="#0055d4"></stop>
      <stop offset="1" stop-color="#003380"></stop>
    </linearGradient>
    <radialGradient id="dial-face" cx="0.4" cy="0.4" r="0.95">
      <stop offset="0%" stop-color="#ffffff"></stop>
      <stop offset="75%" stop-color="#f1f5fa"></stop>
      <stop offset="100%" stop-color="#d6dfeb"></stop>
    </radialGradient>
    <radialGradient id="dial-inner-top" cx="0.5" cy="-0.05" r="0.95">
      <stop offset="0" stop-color="rgba(40,70,122,.35)"></stop>
      <stop offset="0.5" stop-color="rgba(40,70,122,0)"></stop>
    </radialGradient>
  </defs>

  <path fill="url(#em-base)" d="m 56 6 c -6.65625 0 -12 5.34375 -12 12 v 12 h -24 c -4.4375 0 -8 3.5625 -8 8 v 24 h 12 c 6.65625 0 12 5.34375 12 12 s -5.34375 12 -12 12 h -12 v 24 c 0 4.4375 3.5625 8 8 8 h 24 v -12 c 0 -6.65625 5.34375 -12 12 -12 s 12 5.34375 12 12 v 12 h 24 c 4.4375 0 8 -3.5625 8 -8 v -24 h 12 c 6.65625 0 12 -5.34375 12 -12 s -5.34375 -12 -12 -12 h -12 v -24 c 0 -4.4375 -3.5625 -8 -8 -8 h -24 v -12 c 0 -6.65625 -5.34375 -12 -12 -12 z m 0 0"></path>

  <circle cx="84" cy="89" r="28" fill="url(#gauge-ply)"></circle>

  <path fill="url(#em-hl)" d="m 56 0 c -6.65625 0 -12 5.34375 -12 12 v 12 h -24 c -4.4375 0 -8 3.5625 -8 8 v 24 h 12 c 6.65625 0 12 5.34375 12 12 s -5.34375 12 -12 12 h -12 v 24 c 0 4.4375 3.5625 8 8 8 h 24 v -12 c 0 -6.65625 5.34375 -12 12 -12 s 12 5.34375 12 12 v 12 h 24 c 4.4375 0 8 -3.5625 8 -8 v -24 h 12 c 6.65625 0 12 -5.34375 12 -12 s -5.34375 -12 -12 -12 h -12 v -24 c 0 -4.4375 -3.5625 -8 -8 -8 h -24 v -12 c 0 -6.65625 -5.34375 -12 -12 -12 z m 0 0"></path>
  <path fill="#0066ff" fill-opacity="0.301961" d="m 56 0 c -6.65625 0 -12 5.34375 -12 12 v 12 h -24 c -4.4375 0 -8 3.5625 -8 8 v 24 h 12 c 6.65625 0 12 5.34375 12 12 h 20 z m 0 68 v 20 c 6.65625 0 12 5.34375 12 12 v 12 h 24 c 4.4375 0 8 -3.5625 8 -8 v -24 h 12 c 6.65625 0 12 -5.34375 12 -12 z m 0 0"></path>

  <circle cx="84" cy="84" r="28" fill="url(#dial-face)"></circle>
  <circle cx="84" cy="84" r="27.6" fill="url(#dial-inner-top)"></circle>

  <g transform="translate(84 84)">
    <line x1="-18.62" y1="10.75" x2="-15.16" y2="8.75" stroke="#28467a" stroke-width="1.4" stroke-linecap="round"></line>
    <line x1="-21.50" y1="-0.00" x2="-16.00" y2="-0.00" stroke="#28467a" stroke-width="2" stroke-linecap="round"></line>
    <line x1="-18.62" y1="-10.75" x2="-15.16" y2="-8.75" stroke="#28467a" stroke-width="1.4" stroke-linecap="round"></line>
    <line x1="-10.75" y1="-18.62" x2="-8.75" y2="-15.16" stroke="#28467a" stroke-width="1.4" stroke-linecap="round"></line>
    <line x1="0.00" y1="-21.50" x2="0.00" y2="-16.00" stroke="#28467a" stroke-width="2" stroke-linecap="round"></line>
    <line x1="10.75" y1="-18.62" x2="8.75" y2="-15.16" stroke="#28467a" stroke-width="1.4" stroke-linecap="round"></line>
    <line x1="18.62" y1="-10.75" x2="15.16" y2="-8.75" stroke="#28467a" stroke-width="1.4" stroke-linecap="round"></line>
    <line x1="21.50" y1="-0.00" x2="16.00" y2="-0.00" stroke="#e62d42" stroke-width="2" stroke-linecap="round"></line>
    <line x1="18.62" y1="10.75" x2="15.16" y2="8.75" stroke="#e62d42" stroke-width="1.4" stroke-linecap="round"></line>
  </g>

  <g transform="translate(84 84)">
    <path d="M 10.500 -18.187 A 21 21 0 0 1 18.187 10.500" stroke="#e62d42" stroke-width="3.2" fill="none" stroke-linecap="round"></path>
  </g>

  <g transform="translate(84 84) rotate(58)">
    <path d="M 0 0 L -1.9 5 L 1.9 5 Z" fill="#28467a"></path>
    <path d="M -2.4 0 L -1.3 -21 L 0 -23 L 1.3 -21 L 2.4 0 Z" fill="#e62d42"></path>
    <path d="M 0 -21 L 0 -2" stroke="rgba(255,255,255,.5)" stroke-width="0.45" stroke-linecap="round"></path>
  </g>

  <circle cx="84" cy="84" r="5.2" fill="#28467a"></circle>
  <circle cx="84" cy="84" r="5.2" fill="none" stroke="rgba(255,255,255,.45)" stroke-width="0.6"></circle>
  <circle cx="84" cy="84" r="1.9" fill="#ffffff"></circle>
</svg>
